<svg width="89" height="273" viewBox="0 0 89 273" xmlns="http://www.w3.org/2000/svg" xmlns:xlink="http://www.w3.org/1999/xlink">
  <defs>
    <path id="a" d="M0 276h88.3V.5H0z"/>
  </defs>
  <g fill="none" fill-rule="evenodd">
    <g transform="translate(0 -3)">
      <mask id="b" fill="#fff">
        <use xlink:href="#a"/>
      </mask>
      <path fill="#D9222A" mask="url(#b)" d="M49.4.6H.2L0 276l88.3-37.8L49.3.6"/>
    </g>
    <path fill="#FFF" d="M19 145h25.3v-7H19M28 116.2c-1.8-1.5-2.7-3.3-2.7-5.8 0-5 3.3-6.6 7.3-6.6h11.7v7H34c-2 0-3 .8-3 2.4 0 2 1.4 2.8 3 2.8h10.3v7H25.8v-6.8H28M41.6 82c6.7 0 9 3.7 9 9.8 0 4.5-1.2 8.8-6.2 9.5v-7c1.2-.4 1.6-1 1.6-2.7 0-2.4-1.4-2.7-3.3-2.7h-2c1.6 1.2 2.2 3 2.2 5 0 5-3.4 8-8.8 8s-9-3.2-9-8c0-2.4 1-4 3-5h-2.4v-7h15.8zm-7.3 13c2.4 0 3.7-1 3.7-3s-1.3-3.3-3.7-3.3c-2.4 0-3.7 1.2-3.7 3.2s1.3 3 3.7 3zM35 60c5.8 0 9.8 4.2 9.8 10.2 0 6-4 10-9.8 10-5.7 0-9.7-4-9.7-10s4-10 9.7-10zm0 13.3c2 0 4.7-.5 4.7-3 0-2.8-2.7-3-4.7-3s-4.6.3-4.6 3c0 2 1.5 3 4.6 3zM44.8 173.6c0 5.7-3.4 10.4-9.5 10.4-5.8 0-10-4.3-10-10.2 0-6.2 4.3-10.2 10.7-10.2h.6v13.6c2.3 0 3.7-1.4 3.7-3.6 0-1.4-.5-2.3-1.6-3V164c4.2 1.2 6 5.6 6 9.6zm-15 .2c0 2 1 3 3.2 3.4v-6.7c-1.8.2-3 1.2-3 3.3zM31.8 147.3c-.4 1-.5 1.7-.5 2.6 0 2.8 1.7 4.2 4.6 4.2h8.3v7H25.8v-6.7h3c-2.3-1.2-3.5-2.8-3.5-5.4 0-.7 0-1 .4-1.7h6M30.3 190c-1.2-2-2.6-3.2-5-3.2-5.4 0-6.5 4.8-6.5 9V212h5.8v-15c0-1.8.7-2.7 2-2.7 1.2 0 2 1 2 2.4v2h4.8v-2.4c0-2 1-3 2.4-3 1.6 0 2.4 1 2.4 3v4.8h-11v7.6h17v-13.3c0-5-1.7-9.7-7.7-9.7-3.3 0-5.2 1.5-6.2 4.4M25.8 133.5h18.5v-7H25.8M20.5 126c2.2 0 3.7 1.7 3.7 4s-1.5 4-3.7 4-3.8-1.7-3.8-4 1.6-4 3.8-4"/>
  </g>
</svg>
