<?xml version="1.0" encoding="UTF-8" standalone="no"?>
<svg width="107px" height="94px" viewBox="0 0 107 94" version="1.1" xmlns="http://www.w3.org/2000/svg" xmlns:xlink="http://www.w3.org/1999/xlink">
    <!-- Generator: Sketch 40.1 (33804) - http://www.bohemiancoding.com/sketch -->
    <title>Path 5 Copy 7</title>
    <desc>Created with Sketch.</desc>
    <defs>
        <linearGradient x1="50%" y1="0%" x2="50%" y2="100%" id="linearGradient-1">
            <stop stop-color="#FF6E6E" offset="0%"></stop>
            <stop stop-color="#D0011B" offset="100%"></stop>
        </linearGradient>
    </defs>
    <g id="Page-1" stroke="none" stroke-width="1" fill="none" fill-rule="evenodd" stroke-linejoin="round">
        <g id="Artboard-3" transform="translate(-662.000000, -533.000000)" stroke-width="8" stroke="url(#linearGradient-1)">
            <polygon id="Path-5-Copy-7" points="677.1375 548.217391 688.275 548.217391 688.275 537 710.55 537 710.55 548.217391 720.45 548.217391 720.45 537 742.725 537 742.725 548.217391 753.8625 548.217391 753.8625 559.434783 765 559.434783 765 580.623188 753.8625 580.623188 753.8625 590.594203 742.725 590.594203 742.725 601.811594 731.5875 601.811594 731.5875 613.028986 720.45 613.028986 720.45 623 710.55 623 710.55 613.028986 699.4125 613.028986 699.4125 601.811594 688.275 601.811594 688.275 590.594203 677.1375 590.594203 677.1375 580.623188 666 580.623188 666 559.434783 677.1375 559.434783"></polygon>
        </g>
    </g>
</svg>